REM DIRINDEX 1\6,1\2\7,1\2\8,1\2\9,1\3\10,1\3\11,1\4\12,1\4\13,1\4\14,1\5\15,1\5\16,1\5\17
REM DIRNAME folder01,folder02,folder03,folder04,folder05,folder06,folder07,folder08,folder09,folder10,folder11,folder12,folder13,folder14,folder15,folder16,folder17
TITLE ""
FILE "3Q_t_0126-0141.mp3" MP3
  TRACK 01 AUDIO
    TITLE "10:cjc041_1856"
    INDEX 01 00:00:00
  TRACK 02 AUDIO
    TITLE "0:"
    INDEX 01 00:01:09
  TRACK 03 AUDIO
    TITLE "11:cjc041_1857"
    INDEX 01 00:01:68
  TRACK 04 AUDIO
    TITLE "0:"
    INDEX 01 00:05:32
  TRACK 05 AUDIO
    TITLE "10:cjc041_1858"
    INDEX 01 00:06:08
  TRACK 06 AUDIO
    TITLE "0:"
    INDEX 01 00:07:11
  TRACK 07 AUDIO
    TITLE "11:cjc041_1859"
    INDEX 01 00:07:62
  TRACK 08 AUDIO
    TITLE "0:"
    INDEX 01 00:08:62
  TRACK 09 AUDIO
    TITLE "10:cjc041_1860"
    INDEX 01 00:09:42
  TRACK 10 AUDIO
    TITLE "0:"
    INDEX 01 00:10:47
  TRACK 11 AUDIO
    TITLE "11:cjc041_1861"
    INDEX 01 00:11:25
  TRACK 12 AUDIO
    TITLE "0:"
    INDEX 01 00:12:28
  TRACK 13 AUDIO
    TITLE "10:cjc041_1862"
    INDEX 01 00:13:06
  TRACK 14 AUDIO
    TITLE "0:"
    INDEX 01 00:14:11
  TRACK 15 AUDIO
    TITLE "11:cjc041_1863"
    INDEX 01 00:14:66
  TRACK 16 AUDIO
    TITLE "0:"
    INDEX 01 00:16:69
  TRACK 17 AUDIO
    TITLE "10:cjc041_1864"
    INDEX 01 00:17:39
  TRACK 18 AUDIO
    TITLE "0:"
    INDEX 01 00:18:56
  TRACK 19 AUDIO
    TITLE "11:cjc041_1865"
    INDEX 01 00:19:26
  TRACK 20 AUDIO
    TITLE "0:"
    INDEX 01 00:20:49
  TRACK 21 AUDIO
    TITLE "10:cjc041_1866"
    INDEX 01 00:21:23
  TRACK 22 AUDIO
    TITLE "0:"
    INDEX 01 00:22:44
  TRACK 23 AUDIO
    TITLE "11:cjc041_1867"
    INDEX 01 00:23:24
  TRACK 24 AUDIO
    TITLE "0:"
    INDEX 01 00:24:31
  TRACK 25 AUDIO
    TITLE "10:cjc041_1868"
    INDEX 01 00:25:09
  TRACK 26 AUDIO
    TITLE "0:"
    INDEX 01 00:26:15
  TRACK 27 AUDIO
    TITLE "11:cjc041_1869"
    INDEX 01 00:26:67
  TRACK 28 AUDIO
    TITLE "0:"
    INDEX 01 00:27:65
  TRACK 29 AUDIO
    TITLE "10:cjc041_1870"
    INDEX 01 00:28:45
  TRACK 30 AUDIO
    TITLE "0:"
    INDEX 01 00:29:48
  TRACK 31 AUDIO
    TITLE "11:cjc041_1871"
    INDEX 01 00:30:26
  TRACK 32 AUDIO
    TITLE "0:"
    INDEX 01 00:31:14
  TRACK 33 AUDIO
    TITLE "10:cjc041_1872"
    INDEX 01 00:31:69
  TRACK 34 AUDIO
    TITLE "0:"
    INDEX 01 00:33:13
  TRACK 35 AUDIO
    TITLE "11:cjc041_1873"
    INDEX 01 00:33:68
  TRACK 36 AUDIO
    TITLE "0:"
    INDEX 01 00:34:61
  TRACK 37 AUDIO
    TITLE "10:cjc041_1874"
    INDEX 01 00:35:41
  TRACK 38 AUDIO
    TITLE "0:"
    INDEX 01 00:36:56
  TRACK 39 AUDIO
    TITLE "11:cjc041_1875"
    INDEX 01 00:37:34
  TRACK 40 AUDIO
    TITLE "0:"
    INDEX 01 00:40:07
  TRACK 41 AUDIO
    TITLE "10:cjc041_1876"
    INDEX 01 00:40:58
  TRACK 42 AUDIO
    TITLE "0:"
    INDEX 01 00:41:73
  TRACK 43 AUDIO
    TITLE "11:cjc041_1877"
    INDEX 01 00:42:53
  TRACK 44 AUDIO
    TITLE "0:"
    INDEX 01 00:43:50
  TRACK 45 AUDIO
    TITLE "10:cjc041_1878"
    INDEX 01 00:44:26
  TRACK 46 AUDIO
    TITLE "0:"
    INDEX 01 00:45:39
  TRACK 47 AUDIO
    TITLE "11:cjc041_1879"
    INDEX 01 00:46:21
  TRACK 48 AUDIO
    TITLE "0:"
    INDEX 01 00:47:42
  TRACK 49 AUDIO
    TITLE "10:cjc041_1880"
    INDEX 01 00:48:18
  TRACK 50 AUDIO
    TITLE "0:"
    INDEX 01 00:49:23
  TRACK 51 AUDIO
    TITLE "11:cjc041_1881"
    INDEX 01 00:50:07
  TRACK 52 AUDIO
    TITLE "0:"
    INDEX 01 00:52:32
  TRACK 53 AUDIO
    TITLE "10:cjc041_1882"
    INDEX 01 00:53:06
  TRACK 54 AUDIO
    TITLE "0:"
    INDEX 01 00:54:21
  TRACK 55 AUDIO
    TITLE "11:cjc041_1883"
    INDEX 01 00:55:04
  TRACK 56 AUDIO
    TITLE "0:"
    INDEX 01 00:56:33
  TRACK 57 AUDIO
    TITLE "10:cjc041_1884"
    INDEX 01 00:57:13
  TRACK 58 AUDIO
    TITLE "0:"
    INDEX 01 00:58:26
  TRACK 59 AUDIO
    TITLE "11:cjc041_1885"
    INDEX 01 00:59:00
  TRACK 60 AUDIO
    TITLE "0:"
    INDEX 01 01:00:08
  TRACK 61 AUDIO
    TITLE "10:cjc041_1886"
    INDEX 01 01:00:55
  TRACK 62 AUDIO
    TITLE "0:"
    INDEX 01 01:02:12
  TRACK 63 AUDIO
    TITLE "11:cjc041_1887"
    INDEX 01 01:02:67
  TRACK 64 AUDIO
    TITLE "0:"
    INDEX 01 01:04:05
